<svg width="37" height="37" viewBox="0 0 37 37" fill="none" xmlns="http://www.w3.org/2000/svg">
<rect x="0.0038147" y="0.900391" width="36.0187" height="36.0187" rx="9.00468" fill="#00455B"/>
<path d="M11.0295 25.8933C10.8825 25.7463 10.809 25.5747 10.809 25.3787C10.809 25.1827 10.8825 25.0112 11.0295 24.8642L22.7173 13.1765H16.2486C16.0362 13.1765 15.8606 13.107 15.7218 12.9682C15.5829 12.8293 15.5135 12.6537 15.5135 12.4414C15.5135 12.229 15.5829 12.0534 15.7218 11.9146C15.8606 11.7757 16.0362 11.7063 16.2486 11.7063H24.4814C24.6938 11.7063 24.8694 11.7757 25.0082 11.9146C25.1471 12.0534 25.2165 12.229 25.2165 12.4414V20.6742C25.2165 20.8866 25.1471 21.0622 25.0082 21.201C24.8694 21.3399 24.6938 21.4093 24.4814 21.4093C24.2691 21.4093 24.0935 21.3399 23.9546 21.201C23.8158 21.0622 23.7464 20.8866 23.7464 20.6742V14.2056L12.0587 25.8933C11.9116 26.0403 11.7401 26.1138 11.5441 26.1138C11.3481 26.1138 11.1766 26.0403 11.0295 25.8933Z" fill="white"/>
</svg>
