<svg width="22" height="22" viewBox="0 0 22 22" fill="none" xmlns="http://www.w3.org/2000/svg">
<g id="account_balance_FILL0_wght400_GRAD0_opsz48 1">
<path id="Vector" d="M5.59103 16.4316C5.39406 16.4316 5.23118 16.3672 5.10239 16.2385C4.9736 16.1097 4.90921 15.9468 4.90921 15.7498V9.38619C4.90921 9.20437 4.97739 9.04906 5.11376 8.92028C5.25012 8.79149 5.40921 8.72709 5.59103 8.72709C5.788 8.72709 5.95088 8.79149 6.07966 8.92028C6.20845 9.04906 6.27285 9.21194 6.27285 9.40891V15.7725C6.27285 15.9544 6.20466 16.1097 6.0683 16.2385C5.93194 16.3672 5.77285 16.4316 5.59103 16.4316ZM11.091 16.4316C10.8941 16.4316 10.7312 16.3672 10.6024 16.2385C10.4736 16.1097 10.4092 15.9468 10.4092 15.7498V9.38619C10.4092 9.20437 10.4774 9.04906 10.6138 8.92028C10.7501 8.79149 10.9092 8.72709 11.091 8.72709C11.288 8.72709 11.4509 8.79149 11.5797 8.92028C11.7085 9.04906 11.7728 9.21194 11.7728 9.40891V15.7725C11.7728 15.9544 11.7047 16.1097 11.5683 16.2385C11.4319 16.3672 11.2728 16.4316 11.091 16.4316ZM2.5683 19.1589C2.38648 19.1589 2.23118 19.0907 2.10239 18.9544C1.9736 18.818 1.90921 18.6589 1.90921 18.4771C1.90921 18.2801 1.9736 18.1172 2.10239 17.9885C2.23118 17.8597 2.39406 17.7953 2.59103 17.7953H19.4319C19.6138 17.7953 19.7691 17.8635 19.8978 17.9998C20.0266 18.1362 20.091 18.2953 20.091 18.4771C20.091 18.6741 20.0266 18.8369 19.8978 18.9657C19.7691 19.0945 19.6062 19.1589 19.4092 19.1589H2.5683ZM16.4092 16.4316C16.2122 16.4316 16.0494 16.3672 15.9206 16.2385C15.7918 16.1097 15.7274 15.9468 15.7274 15.7498V9.38619C15.7274 9.20437 15.7956 9.04906 15.9319 8.92028C16.0683 8.79149 16.2274 8.72709 16.4092 8.72709C16.6062 8.72709 16.7691 8.79149 16.8978 8.92028C17.0266 9.04906 17.091 9.21194 17.091 9.40891V15.7725C17.091 15.9544 17.0228 16.1097 16.8865 16.2385C16.7501 16.3672 16.591 16.4316 16.4092 16.4316ZM11.6819 1.36346L19.591 5.86346C19.7425 5.93922 19.8638 6.04906 19.9547 6.193C20.0456 6.33694 20.091 6.49225 20.091 6.65891C20.091 6.87103 20.0077 7.04149 19.841 7.17028C19.6744 7.29906 19.485 7.36346 19.2728 7.36346H2.72739C2.51527 7.36346 2.32588 7.29906 2.15921 7.17028C1.99254 7.04149 1.90921 6.87103 1.90921 6.65891C1.90921 6.49225 1.95845 6.34073 2.05694 6.20437C2.15542 6.068 2.28042 5.95437 2.43194 5.86346L10.3183 1.36346C10.5304 1.24225 10.7577 1.18164 11.0001 1.18164C11.2425 1.18164 11.4698 1.24225 11.6819 1.36346ZM4.95466 5.99982H17.0456H4.95466ZM4.95466 5.99982H17.0456L11.0001 2.54528L4.95466 5.99982Z" fill="url(#paint0_linear_297_479)"/>
</g>
<defs>
<linearGradient id="paint0_linear_297_479" x1="11.0001" y1="1.18164" x2="11.0001" y2="19.1589" gradientUnits="userSpaceOnUse">
<stop stop-color="#0082AB"/>
<stop offset="1" stop-color="#006B8D" stop-opacity="0.3"/>
</linearGradient>
</defs>
</svg>
