<svg width="24" height="24" viewBox="0 0 24 24" fill="none" xmlns="http://www.w3.org/2000/svg">
<g id="comment-question 1" clip-path="url(#clip0_611_372)">
<path id="Vector" d="M11.904 16.0001C12.732 16.0001 13.404 16.6721 13.404 17.5001C13.404 18.3281 12.732 19.0001 11.904 19.0001C11.076 19.0001 10.404 18.3281 10.404 17.5001C10.404 16.6721 11.076 16.0001 11.904 16.0001ZM12.904 14.0001C12.904 13.4391 13.312 12.7751 13.832 12.4881C15.332 11.6621 16.139 9.96509 15.841 8.26509C15.558 6.65209 14.234 5.32709 12.62 5.04409C11.438 4.84009 10.24 5.15609 9.33101 5.91809C8.42401 6.68109 7.90301 7.79709 7.90301 8.98109C7.90301 9.53409 8.35101 9.98109 8.90301 9.98109C9.45501 9.98109 9.90301 9.53409 9.90301 8.98109C9.90301 8.38909 10.163 7.83109 10.617 7.44909C11.078 7.06309 11.669 6.90709 12.274 7.01409C13.061 7.15209 13.732 7.82409 13.87 8.61009C14.023 9.48109 13.629 10.3151 12.866 10.7351C11.71 11.3721 10.903 12.7141 10.903 13.9991C10.903 14.5521 11.351 14.9991 11.903 14.9991C12.455 14.9991 12.903 14.5521 12.903 13.9991L12.904 14.0001ZM24 19.0001V12.3401C24 5.86109 19.096 0.454093 12.836 0.0280926C9.36101 -0.201907 5.96101 1.06609 3.50901 3.52109C1.05701 5.97709 -0.210988 9.37809 0.0300115 12.8541C0.470012 19.2081 6.08201 24.0001 13.084 24.0001H19.001C21.758 24.0001 24.001 21.7571 24.001 19.0001H24ZM12.701 2.02409C17.916 2.37809 22 6.90909 22 12.3391V18.9991C22 20.6531 20.654 21.9991 19 21.9991H13.083C7.04801 21.9991 2.39701 18.0951 2.02401 12.7151C1.82301 9.81609 2.87901 6.98009 4.92301 4.93409C6.80501 3.04909 9.35801 2.00009 12.015 2.00009C12.243 2.00009 12.472 2.00809 12.7 2.02309L12.701 2.02409Z" fill="#76808A"/>
</g>
<defs>
<clipPath id="clip0_611_372">
<rect width="24" height="24" fill="white"/>
</clipPath>
</defs>
</svg>
