<svg width="23" height="22" viewBox="0 0 23 22" fill="none" xmlns="http://www.w3.org/2000/svg">
<g id="document_scanner_FILL0_wght400_GRAD0_opsz48 1">
<path id="Vector" d="M3.04595 4.97752C2.84898 4.97752 2.68611 4.91312 2.55732 4.78434C2.42853 4.65555 2.36414 4.49267 2.36414 4.2957V1.68206C2.36414 1.48509 2.42853 1.32221 2.55732 1.19343C2.68611 1.06464 2.84898 1.00024 3.04595 1.00024H5.65959C5.85656 1.00024 6.01944 1.06464 6.14823 1.19343C6.27701 1.32221 6.34141 1.48509 6.34141 1.68206C6.34141 1.87903 6.27701 2.04191 6.14823 2.1707C6.01944 2.29949 5.85656 2.36388 5.65959 2.36388H3.72777V4.2957C3.72777 4.49267 3.66338 4.65555 3.53459 4.78434C3.4058 4.91312 3.24292 4.97752 3.04595 4.97752ZM19.8641 4.97752C19.6672 4.97752 19.5043 4.91312 19.3755 4.78434C19.2467 4.65555 19.1823 4.49267 19.1823 4.2957V2.36388H17.2505C17.0535 2.36388 16.8906 2.29949 16.7619 2.1707C16.6331 2.04191 16.5687 1.87903 16.5687 1.68206C16.5687 1.48509 16.6331 1.32221 16.7619 1.19343C16.8906 1.06464 17.0535 1.00024 17.2505 1.00024H19.8641C20.0611 1.00024 20.224 1.06464 20.3528 1.19343C20.4816 1.32221 20.546 1.48509 20.546 1.68206V4.2957C20.546 4.49267 20.4816 4.65555 20.3528 4.78434C20.224 4.91312 20.0611 4.97752 19.8641 4.97752ZM3.04595 21.0002C2.84898 21.0002 2.68611 20.9359 2.55732 20.8071C2.42853 20.6783 2.36414 20.5154 2.36414 20.3184V17.7048C2.36414 17.5078 2.42853 17.3449 2.55732 17.2162C2.68611 17.0874 2.84898 17.023 3.04595 17.023C3.24292 17.023 3.4058 17.0874 3.53459 17.2162C3.66338 17.3449 3.72777 17.5078 3.72777 17.7048V19.6366H5.65959C5.85656 19.6366 6.01944 19.701 6.14823 19.8298C6.27701 19.9586 6.34141 20.1215 6.34141 20.3184C6.34141 20.5154 6.27701 20.6783 6.14823 20.8071C6.01944 20.9359 5.85656 21.0002 5.65959 21.0002H3.04595ZM17.2505 21.0002C17.0535 21.0002 16.8906 20.9359 16.7619 20.8071C16.6331 20.6783 16.5687 20.5154 16.5687 20.3184C16.5687 20.1215 16.6331 19.9586 16.7619 19.8298C16.8906 19.701 17.0535 19.6366 17.2505 19.6366H19.1823V17.7048C19.1823 17.5078 19.2467 17.3449 19.3755 17.2162C19.5043 17.0874 19.6672 17.023 19.8641 17.023C20.0611 17.023 20.224 17.0874 20.3528 17.2162C20.4816 17.3449 20.546 17.5078 20.546 17.7048V20.3184C20.546 20.5154 20.4816 20.6783 20.3528 20.8071C20.224 20.9359 20.0611 21.0002 19.8641 21.0002H17.2505ZM6.45504 16.9093H16.455V5.09115H6.45504V16.9093ZM6.45504 18.273C6.09141 18.273 5.77323 18.1366 5.5005 17.8639C5.22777 17.5912 5.09141 17.273 5.09141 16.9093V5.09115C5.09141 4.72752 5.22777 4.40933 5.5005 4.13661C5.77323 3.86388 6.09141 3.72752 6.45504 3.72752H16.455C16.8187 3.72752 17.1369 3.86388 17.4096 4.13661C17.6823 4.40933 17.8187 4.72752 17.8187 5.09115V16.9093C17.8187 17.273 17.6823 17.5912 17.4096 17.8639C17.1369 18.1366 16.8187 18.273 16.455 18.273H6.45504ZM9.63686 8.95479H13.2732C13.4702 8.95479 13.6331 8.8904 13.7619 8.76161C13.8906 8.63282 13.955 8.46994 13.955 8.27297C13.955 8.076 13.8906 7.91312 13.7619 7.78434C13.6331 7.65555 13.4702 7.59115 13.2732 7.59115H9.63686C9.43989 7.59115 9.27701 7.65555 9.14823 7.78434C9.01944 7.91312 8.95504 8.076 8.95504 8.27297C8.95504 8.46994 9.01944 8.63282 9.14823 8.76161C9.27701 8.8904 9.43989 8.95479 9.63686 8.95479ZM9.63686 11.6821H13.2732C13.4702 11.6821 13.6331 11.6177 13.7619 11.4889C13.8906 11.3601 13.955 11.1972 13.955 11.0002C13.955 10.8033 13.8906 10.6404 13.7619 10.5116C13.6331 10.3828 13.4702 10.3184 13.2732 10.3184H9.63686C9.43989 10.3184 9.27701 10.3828 9.14823 10.5116C9.01944 10.6404 8.95504 10.8033 8.95504 11.0002C8.95504 11.1972 9.01944 11.3601 9.14823 11.4889C9.27701 11.6177 9.43989 11.6821 9.63686 11.6821ZM9.63686 14.4093H13.2732C13.4702 14.4093 13.6331 14.3449 13.7619 14.2162C13.8906 14.0874 13.955 13.9245 13.955 13.7275C13.955 13.5305 13.8906 13.3677 13.7619 13.2389C13.6331 13.1101 13.4702 13.0457 13.2732 13.0457H9.63686C9.43989 13.0457 9.27701 13.1101 9.14823 13.2389C9.01944 13.3677 8.95504 13.5305 8.95504 13.7275C8.95504 13.9245 9.01944 14.0874 9.14823 14.2162C9.27701 14.3449 9.43989 14.4093 9.63686 14.4093ZM6.45504 16.9093V5.09115V16.9093Z" fill="url(#paint0_linear_611_423)"/>
</g>
<defs>
<linearGradient id="paint0_linear_611_423" x1="11.455" y1="1.00024" x2="11.455" y2="21.0002" gradientUnits="userSpaceOnUse">
<stop stop-color="#7340E0"/>
<stop offset="1" stop-color="#7340E0" stop-opacity="0.3"/>
</linearGradient>
</defs>
</svg>
