<svg width="37" height="37" viewBox="0 0 37 37" fill="none" xmlns="http://www.w3.org/2000/svg">
<g id="Group 1000000849">
<rect id="Rectangle 201" x="0.704987" y="0.800293" width="36.0187" height="36.0187" rx="9.00468" fill="#00455B"/>
<path id="Vector" d="M25.6972 11.8267C25.8442 11.9737 25.9177 12.1452 25.9177 12.3413C25.9177 12.5373 25.8442 12.7088 25.6972 12.8558L14.0094 24.5435L20.4781 24.5435C20.6905 24.5435 20.8661 24.6129 21.0049 24.7518C21.1438 24.8906 21.2132 25.0662 21.2132 25.2786C21.2132 25.491 21.1438 25.6666 21.0049 25.8054C20.8661 25.9442 20.6905 26.0137 20.4781 26.0137L12.2453 26.0137C12.0329 26.0137 11.8573 25.9442 11.7185 25.8054C11.5796 25.6666 11.5102 25.491 11.5102 25.2786L11.5102 17.0457C11.5102 16.8334 11.5796 16.6578 11.7185 16.5189C11.8573 16.3801 12.0329 16.3107 12.2453 16.3107C12.4576 16.3107 12.6332 16.3801 12.7721 16.5189C12.9109 16.6578 12.9803 16.8334 12.9803 17.0457L12.9803 23.5144L24.668 11.8267C24.8151 11.6797 24.9866 11.6062 25.1826 11.6062C25.3786 11.6062 25.5501 11.6797 25.6972 11.8267Z" fill="white"/>
</g>
</svg>
