<svg width="37" height="37" viewBox="0 0 37 37" fill="none" xmlns="http://www.w3.org/2000/svg">
<g id="Group 1000000849">
<rect id="Rectangle 201" x="0.0038147" y="0.900146" width="36.0187" height="36.0187" rx="9.00468" fill="#00455B"/>
<path id="Vector" d="M18.0127 28.814C23.1454 28.814 27.3686 24.9059 27.8728 19.8993C27.9269 19.3681 27.5036 18.9088 26.9724 18.9088C26.5131 18.9088 26.1259 19.251 26.0809 19.7012C25.6847 23.8074 22.2179 27.013 18.0127 27.013C15.2032 27.013 12.7269 25.5813 11.2772 23.4112H12.6099C13.1051 23.4112 13.5104 23.0059 13.5104 22.5107C13.5104 22.0154 13.1051 21.6102 12.6099 21.6102H9.00801C8.51275 21.6102 8.10754 22.0154 8.10754 22.5107V26.1126C8.10754 26.6078 8.51275 27.013 9.00801 27.013C9.50327 27.013 9.90848 26.6078 9.90848 26.1126V24.6088C11.7004 27.1481 14.663 28.814 18.0127 28.814ZM18.0127 9.00366C12.88 9.00366 8.65683 12.9117 8.15257 17.9183C8.10754 18.4496 8.52176 18.9088 9.05304 18.9088C9.51227 18.9088 9.89948 18.5666 9.9445 18.1164C10.3407 14.0103 13.8075 10.8046 18.0127 10.8046C20.8222 10.8046 23.2984 12.2363 24.7482 14.4065H23.4155C22.9202 14.4065 22.515 14.8117 22.515 15.3069C22.515 15.8022 22.9202 16.2074 23.4155 16.2074H27.0174C27.5126 16.2074 27.9178 15.8022 27.9178 15.3069V11.7051C27.9178 11.2098 27.5126 10.8046 27.0174 10.8046C26.5221 10.8046 26.1169 11.2098 26.1169 11.7051V13.2088C24.325 10.6695 21.3624 9.00366 18.0127 9.00366ZM17.2203 13.3979C17.2203 12.9567 17.5805 12.6055 18.0127 12.6055C18.4449 12.6055 18.8051 12.9567 18.8051 13.3979V13.7311C19.7686 13.9022 20.3809 14.4155 20.7501 14.9017C21.0563 15.2979 20.8942 15.8742 20.426 16.0723C20.1018 16.2074 19.7236 16.0994 19.5075 15.8202C19.2553 15.478 18.8051 15.1268 18.0667 15.1268C17.4364 15.1268 16.4369 15.46 16.4369 16.3785C16.4369 17.2339 17.2113 17.5581 18.8141 18.0894C20.9752 18.8368 21.5245 19.9353 21.5245 21.196C21.5245 23.5552 19.2733 24.0145 18.8051 24.0955V24.4287C18.8051 24.8609 18.4539 25.2211 18.0127 25.2211C17.5715 25.2211 17.2203 24.8699 17.2203 24.4287V24.0505C16.653 23.9154 15.4824 23.5012 14.798 22.1595C14.5909 21.7633 14.825 21.241 15.2393 21.0789C15.6084 20.9349 16.0497 21.0699 16.2388 21.4211C16.5269 21.9704 17.0942 22.6548 18.1478 22.6548C18.9852 22.6548 19.9307 22.2225 19.9307 21.205C19.9307 20.3406 19.3004 19.8903 17.8776 19.3771C16.8871 19.0259 14.8611 18.4496 14.8611 16.3965C14.8611 16.3065 14.8701 14.2354 17.2203 13.7311V13.3979Z" fill="white"/>
</g>
</svg>
