<svg width="22" height="22" viewBox="0 0 22 22" fill="none" xmlns="http://www.w3.org/2000/svg">
<g id="remember_me_FILL0_wght400_GRAD0_opsz48 1">
<path id="Vector" d="M6.00017 21C5.62138 21 5.29941 20.8674 5.03426 20.6023C4.76911 20.3371 4.63654 20.0152 4.63654 19.6364V2.36364C4.63654 1.98485 4.76911 1.66288 5.03426 1.39773C5.29941 1.13258 5.62138 1 6.00017 1H16.0002C16.379 1 16.7009 1.13258 16.9661 1.39773C17.2312 1.66288 17.3638 1.98485 17.3638 2.36364V19.6364C17.3638 20.0152 17.2312 20.3371 16.9661 20.6023C16.7009 20.8674 16.379 21 16.0002 21H6.00017ZM6.00017 18.9545V19.6364H16.0002V18.9545H6.00017ZM6.00017 3.04545H16.0002V2.36364H6.00017V3.04545ZM11.0002 15.0909C10.0911 15.0909 9.21229 15.2273 8.36381 15.5C7.51532 15.7727 6.72744 16.1288 6.00017 16.5682V17.5909H16.0002V16.5682C15.2729 16.1288 14.485 15.7727 13.6365 15.5C12.788 15.2273 11.9093 15.0909 11.0002 15.0909ZM11.0002 13.7273C11.9093 13.7273 12.7843 13.8447 13.6252 14.0795C14.4661 14.3144 15.2577 14.6364 16.0002 15.0455V4.40909H6.00017V15.0455C6.75775 14.6364 7.5532 14.3144 8.38654 14.0795C9.21987 13.8447 10.0911 13.7273 11.0002 13.7273ZM11.0229 12.2955C11.7502 12.2955 12.3714 12.0379 12.8865 11.5227C13.4017 11.0076 13.6593 10.3864 13.6593 9.65909C13.6593 8.93182 13.4017 8.31061 12.8865 7.79545C12.3714 7.2803 11.7502 7.02273 11.0229 7.02273C10.2956 7.02273 9.67441 7.2803 9.15926 7.79545C8.64411 8.31061 8.38654 8.93182 8.38654 9.65909C8.38654 10.3864 8.64411 11.0076 9.15926 11.5227C9.67441 12.0379 10.2956 12.2955 11.0229 12.2955ZM11.0229 10.9318C10.6744 10.9318 10.3752 10.8068 10.1252 10.5568C9.87517 10.3068 9.75017 10.0076 9.75017 9.65909C9.75017 9.31061 9.87517 9.01136 10.1252 8.76136C10.3752 8.51136 10.6744 8.38636 11.0229 8.38636C11.3714 8.38636 11.6706 8.51136 11.9206 8.76136C12.1706 9.01136 12.2956 9.31061 12.2956 9.65909C12.2956 10.0076 12.1706 10.3068 11.9206 10.5568C11.6706 10.8068 11.3714 10.9318 11.0229 10.9318ZM11.0002 17.5909H16.0002H6.00017H11.0002Z" fill="url(#paint0_linear_297_469)"/>
</g>
<defs>
<linearGradient id="paint0_linear_297_469" x1="11.0002" y1="1" x2="11.0002" y2="21" gradientUnits="userSpaceOnUse">
<stop stop-color="#FF9F0A"/>
<stop offset="1" stop-color="#FF9F0A" stop-opacity="0.3"/>
</linearGradient>
</defs>
</svg>
