<svg width="23" height="22" viewBox="0 0 23 22" fill="none" xmlns="http://www.w3.org/2000/svg">
<g id="workspace_premium_FILL0_wght400_GRAD0_opsz48 1">
<path id="Vector" d="M10.1359 11.9092L11.454 10.9319L12.7495 11.9092C12.8859 12.0152 13.0222 12.0228 13.1586 11.9319C13.2949 11.841 13.3404 11.7122 13.2949 11.5455L12.7949 9.93191L14.1813 8.86372C14.3025 8.75766 14.3366 8.62888 14.2836 8.47736C14.2305 8.32585 14.1207 8.25009 13.954 8.25009H12.2949L11.7722 6.56827C11.7268 6.4016 11.6245 6.31827 11.4654 6.31827C11.3063 6.31827 11.1965 6.4016 11.1359 6.56827L10.5904 8.25009H8.95403C8.78737 8.25009 8.67752 8.32585 8.62449 8.47736C8.57146 8.62888 8.60555 8.75766 8.72676 8.86372L10.1131 9.93191L9.61312 11.5455C9.56767 11.7122 9.61312 11.841 9.74949 11.9319C9.88585 12.0228 10.0146 12.0152 10.1359 11.9092ZM6.99949 20.7046C6.78737 20.7804 6.58282 20.7501 6.38585 20.6137C6.18888 20.4774 6.0904 20.288 6.0904 20.0455V14.091C5.40858 13.3789 4.91994 12.5986 4.62449 11.7501C4.32903 10.9016 4.1813 10.0455 4.1813 9.18191C4.1813 7.1213 4.87827 5.39403 6.27221 4.00009C7.66615 2.60615 9.39343 1.90918 11.454 1.90918C13.5146 1.90918 15.2419 2.60615 16.6359 4.00009C18.0298 5.39403 18.7268 7.1213 18.7268 9.18191C18.7268 10.0455 18.579 10.9016 18.2836 11.7501C17.9881 12.5986 17.4995 13.3789 16.8177 14.091V20.0455C16.8177 20.288 16.7192 20.4774 16.5222 20.6137C16.3252 20.7501 16.1207 20.7804 15.9086 20.7046L11.454 19.2046L6.99949 20.7046ZM11.454 15.091C13.1055 15.091 14.5033 14.519 15.6472 13.3751C16.7912 12.2311 17.3631 10.8334 17.3631 9.18191C17.3631 7.53039 16.7912 6.13266 15.6472 4.98872C14.5033 3.84479 13.1055 3.27282 11.454 3.27282C9.80252 3.27282 8.40479 3.84479 7.26085 4.98872C6.11691 6.13266 5.54494 7.53039 5.54494 9.18191C5.54494 10.8334 6.11691 12.2311 7.26085 13.3751C8.40479 14.519 9.80252 15.091 11.454 15.091ZM7.45403 19.091L11.454 17.841L15.454 19.091V15.2046C14.848 15.644 14.1965 15.9622 13.4995 16.1592C12.8025 16.3561 12.1207 16.4546 11.454 16.4546C10.7874 16.4546 10.1055 16.3561 9.40858 16.1592C8.71161 15.9622 8.06009 15.644 7.45403 15.2046V19.091Z" fill="url(#paint0_linear_297_489)"/>
</g>
<defs>
<linearGradient id="paint0_linear_297_489" x1="11.454" y1="1.90918" x2="11.454" y2="20.7452" gradientUnits="userSpaceOnUse">
<stop stop-color="#17AC0A"/>
<stop offset="1" stop-color="#17AC0A" stop-opacity="0.3"/>
</linearGradient>
</defs>
</svg>
